<svg width="153" height="132" viewBox="0 0 153 132" fill="none" xmlns="http://www.w3.org/2000/svg">
<line y1="-2" x2="39.9933" y2="-2" transform="matrix(0.835518 -0.549463 0.835518 0.549463 93.9812 57.949)" stroke="#B8B8FF" stroke-width="4"/>
<line y1="-2" x2="41.6893" y2="-2" transform="matrix(0.835518 -0.549463 0.835518 0.549463 92.6802 68.033)" stroke="#B8B8FF" stroke-width="4"/>
<line y1="-2" x2="38.9458" y2="-2" transform="matrix(0.835518 -0.549463 0.835518 0.549463 93.9812 80.0001)" stroke="#B8B8FF" stroke-width="4"/>
<line y1="-2" x2="38.4795" y2="-2" transform="matrix(-0.835518 -0.549463 0.835518 -0.549463 93.0073 78.0646)" stroke="#B8B8FF" stroke-width="4"/>
<line y1="-2" x2="38.6602" y2="-2" transform="matrix(-0.835518 -0.549463 0.835518 -0.549463 94.3169 66.754)" stroke="#B8B8FF" stroke-width="4"/>
<line y1="-2" x2="39.9933" y2="-2" transform="matrix(-0.835518 -0.549463 0.835518 -0.549463 94.6665 56.6786)" stroke="#B8B8FF" stroke-width="4"/>
<path d="M52.3783 92.6988V84.2613H53.8101V92.6988H52.3783ZM48.8754 89.196V87.7641H57.3129V89.196H48.8754ZM71.3719 85.1818C71.2952 84.534 70.9841 84.0312 70.4387 83.6732C69.8932 83.3153 69.2242 83.1363 68.4316 83.1363C67.852 83.1363 67.3449 83.2301 66.9103 83.4176C66.4799 83.6051 66.1432 83.8629 65.9003 84.191C65.6617 84.5191 65.5424 84.892 65.5424 85.3096C65.5424 85.659 65.6255 85.9595 65.7917 86.2109C65.9621 86.458 66.1794 86.6647 66.4436 86.8309C66.7078 86.9928 66.9848 87.1271 67.2746 87.2336C67.5644 87.3359 67.8307 87.419 68.0736 87.4829L69.4032 87.8408C69.7441 87.9303 70.1233 88.0539 70.5409 88.2116C70.9628 88.3693 71.3655 88.5845 71.749 88.8572C72.1368 89.1256 72.4564 89.4708 72.7078 89.8927C72.9593 90.3146 73.085 90.8323 73.085 91.446C73.085 92.1533 72.8996 92.7926 72.5289 93.3636C72.1624 93.9346 71.6255 94.3884 70.9181 94.7251C70.2149 95.0617 69.3605 95.2301 68.3549 95.2301C67.4174 95.2301 66.6056 95.0788 65.9195 94.7762C65.2377 94.4737 64.7007 94.0518 64.3087 93.5106C63.9209 92.9694 63.7015 92.3408 63.6503 91.6249H65.2867C65.3293 92.1193 65.4955 92.5283 65.7853 92.8522C66.0793 93.1718 66.45 93.4105 66.8975 93.5681C67.3492 93.7215 67.835 93.7982 68.3549 93.7982C68.96 93.7982 69.5033 93.7002 69.9848 93.5042C70.4664 93.3039 70.8478 93.0269 71.129 92.6732C71.4103 92.3153 71.5509 91.8977 71.5509 91.4204C71.5509 90.9857 71.4294 90.632 71.1865 90.3593C70.9436 90.0866 70.624 89.865 70.2277 89.6945C69.8314 89.5241 69.4032 89.3749 68.9429 89.2471L67.3321 88.7869C66.3094 88.4928 65.4997 88.0731 64.9032 87.5276C64.3066 86.9822 64.0083 86.2684 64.0083 85.3863C64.0083 84.6533 64.2064 84.0141 64.6027 83.4687C65.0033 82.919 65.5402 82.4928 66.2135 82.1903C66.8911 81.8835 67.6475 81.7301 68.4827 81.7301C69.3265 81.7301 70.0765 81.8813 70.7327 82.1839C71.389 82.4822 71.9088 82.8913 72.2924 83.4112C72.6801 83.931 72.8847 84.5212 72.906 85.1818H71.3719ZM83.3567 85.1818V86.4602H78.2686V85.1818H83.3567ZM79.7516 82.8295H81.2601V92.1874C81.2601 92.6136 81.3219 92.9332 81.4455 93.1462C81.5733 93.3551 81.7352 93.4957 81.9312 93.5681C82.1315 93.6363 82.3425 93.6704 82.5641 93.6704C82.7303 93.6704 82.8666 93.6619 82.9732 93.6448C83.0797 93.6235 83.1649 93.6065 83.2288 93.5937L83.5357 94.9488C83.4334 94.9872 83.2906 95.0255 83.1074 95.0639C82.9241 95.1065 82.6919 95.1278 82.4107 95.1278C81.9845 95.1278 81.5669 95.0362 81.1578 94.8529C80.753 94.6697 80.4163 94.3906 80.1479 94.0156C79.8837 93.6406 79.7516 93.1676 79.7516 92.5965V82.8295ZM93.109 95.2045C92.2227 95.2045 91.445 94.9935 90.7759 94.5717C90.1111 94.1498 89.5913 93.5596 89.2163 92.8011C88.8455 92.0426 88.6602 91.1562 88.6602 90.142C88.6602 89.1193 88.8455 88.2265 89.2163 87.4637C89.5913 86.7009 90.1111 86.1086 90.7759 85.6867C91.445 85.2649 92.2227 85.0539 93.109 85.0539C93.9954 85.0539 94.7709 85.2649 95.4357 85.6867C96.1048 86.1086 96.6246 86.7009 96.9954 87.4637C97.3704 88.2265 97.5579 89.1193 97.5579 90.142C97.5579 91.1562 97.3704 92.0426 96.9954 92.8011C96.6246 93.5596 96.1048 94.1498 95.4357 94.5717C94.7709 94.9935 93.9954 95.2045 93.109 95.2045ZM93.109 93.8494C93.7823 93.8494 94.3363 93.6768 94.7709 93.3316C95.2056 92.9864 95.5273 92.5326 95.7361 91.9701C95.945 91.4076 96.0494 90.7982 96.0494 90.142C96.0494 89.4857 95.945 88.8742 95.7361 88.3075C95.5273 87.7407 95.2056 87.2826 94.7709 86.9332C94.3363 86.5837 93.7823 86.409 93.109 86.409C92.4357 86.409 91.8817 86.5837 91.4471 86.9332C91.0124 87.2826 90.6907 87.7407 90.4819 88.3075C90.2731 88.8742 90.1687 89.4857 90.1687 90.142C90.1687 90.7982 90.2731 91.4076 90.4819 91.9701C90.6907 92.5326 91.0124 92.9864 91.4471 93.3316C91.8817 93.6768 92.4357 93.8494 93.109 93.8494ZM107.449 95.2045C106.529 95.2045 105.736 94.9872 105.071 94.5525C104.407 94.1178 103.895 93.5191 103.537 92.7563C103.179 91.9935 103 91.1221 103 90.142C103 89.1448 103.184 88.2649 103.55 87.5021C103.921 86.735 104.436 86.1363 105.097 85.7059C105.762 85.2712 106.537 85.0539 107.424 85.0539C108.114 85.0539 108.736 85.1818 109.29 85.4374C109.844 85.6931 110.298 86.0511 110.652 86.5113C111.005 86.9715 111.225 87.5085 111.31 88.1221H109.802C109.686 87.6747 109.431 87.2783 109.034 86.9332C108.642 86.5837 108.114 86.409 107.449 86.409C106.861 86.409 106.346 86.5624 105.902 86.8693C105.463 87.1718 105.12 87.6001 104.873 88.1541C104.63 88.7038 104.509 89.3494 104.509 90.0908C104.509 90.8494 104.628 91.5099 104.867 92.0724C105.11 92.6349 105.451 93.0717 105.89 93.3828C106.333 93.6938 106.853 93.8494 107.449 93.8494C107.841 93.8494 108.197 93.7812 108.517 93.6448C108.836 93.5085 109.107 93.3124 109.329 93.0568C109.55 92.8011 109.708 92.4943 109.802 92.1363H111.31C111.225 92.7158 111.014 93.2379 110.677 93.7024C110.345 94.1626 109.904 94.5291 109.354 94.8018C108.809 95.0703 108.174 95.2045 107.449 95.2045ZM118.522 91.4204L118.496 89.5539H118.803L123.098 85.1818H124.965L120.388 89.8096H120.26L118.522 91.4204ZM117.115 94.9999V81.909H118.624V94.9999H117.115ZM123.354 94.9999L119.519 90.142L120.593 89.0937L125.272 94.9999H123.354Z" fill="white"/>
<line y1="-2" x2="38.4795" y2="-2" transform="matrix(-0.835518 -0.549463 0.835518 -0.549463 102.658 35.8265)" stroke="#B8B8FF" stroke-width="4"/>
<line y1="-2" x2="38.6602" y2="-2" transform="matrix(-0.835518 -0.549463 0.835518 -0.549463 114.468 29.7648)" stroke="#B8B8FF" stroke-width="4"/>
<line y1="-2" x2="39.9933" y2="-2" transform="matrix(-0.835518 -0.549463 0.835518 -0.549463 127.396 22.7277)" stroke="#B8B8FF" stroke-width="4"/>
<line y1="-2" x2="38.3285" y2="-2" transform="matrix(1.82543e-06 -1 1 7.89462e-07 93.9812 79.9996)" stroke="#B8B8FF" stroke-width="4"/>
<line y1="-2" x2="39.9933" y2="-2" transform="matrix(-0.835518 -0.549463 0.835518 -0.549463 94.3101 43.9594)" stroke="#B8B8FF" stroke-width="4"/>
<line y1="-2" x2="39.9933" y2="-2" transform="matrix(0.835518 -0.549463 0.835518 0.549463 93.9812 44.4774)" stroke="#B8B8FF" stroke-width="4"/>
<line x1="59.6892" y1="57.7317" x2="59.6892" y2="22.5071" stroke="#B8B8FF" stroke-width="4"/>
<line x1="125.06" y1="58.2457" x2="125.06" y2="21.9891" stroke="#B8B8FF" stroke-width="4"/>
</svg>
